<svg xmlns="http://www.w3.org/2000/svg" width="189" height="135" viewBox="0 0 189 135" fill="none">
<path d="M66.134 66.74C66.534 67.84 65.9341 68.34 64.9341 67.94L1.63405 44.44C0.534052 44.04 -0.165947 42.74 0.0340531 41.64L4.03405 16.44C4.23405 15.34 5.13405 13.94 6.13405 13.34L28.2341 0.54C29.2341 -0.06 30.9341 -0.16 32.0341 0.24L54.9341 9.64C56.0341 10.04 56.8341 11.34 56.8341 12.54V39.54C56.8341 40.74 57.1341 42.54 57.5341 43.64L66.134 66.74ZM10.3341 35.54C10.1341 36.64 10.9341 37.94 11.9341 38.34L50.5341 52.94C51.1341 53.14 51.4341 52.84 51.2341 52.24L48.3341 45.24C47.9341 44.14 47.6341 42.34 47.6341 41.14V18.34C47.6341 17.44 46.9341 16.44 46.1341 16.04L32.4341 10.44C31.5341 10.04 30.0341 10.14 29.1341 10.64L14.5341 19.04C13.5341 19.64 12.6341 20.94 12.4341 22.14L10.3341 35.54Z" transform="translate(60.9659)" fill="url(#paint0_linear)"/>
<path d="M36.4 18.1C36.4 28.4 28.3 36.2 18.2 36.2C8.1 36.2 -7.62939e-07 28.4 -7.62939e-07 18.1C-7.62939e-07 7.9 8.1 1.52588e-06 18.2 1.52588e-06C28.3 1.52588e-06 36.4 7.9 36.4 18.1ZM7.6 18.1C7.6 24.1 12 29.9 18.2 29.9C24.5 29.9 28.8 24.1 28.8 18.1C28.8 12.1 24.5 6.3 18.2 6.3C12 6.3 7.6 12.1 7.6 18.1Z" transform="translate(47.8 98.44)" fill="#181D62"/>
<path d="M14.3617 35.5C13.7617 35.5 13.0617 35 12.8617 34.4L0.0617045 1.1C-0.138296 0.500003 0.161701 -3.05176e-06 0.761701 -3.05176e-06H6.5617C7.1617 -3.05176e-06 7.8617 0.500003 8.0617 1.1L15.2617 20.6C15.4617 21.2 15.8617 21.2 16.0617 20.6L23.1617 1.1C23.3617 0.500003 24.0617 -3.05176e-06 24.6617 -3.05176e-06H30.4617C31.0617 -3.05176e-06 31.3617 0.500003 31.1617 1.1L18.3617 34.4C18.1617 35 17.4617 35.5 16.8617 35.5H14.3617Z" transform="translate(156.938 98.74)" fill="#181D62"/>
<path d="M20.9 24.5L27.5 34.2C27.8 34.7 27.5 35.3 26.9 35.3H20.5C20 35.3 19.6 35.1 19.3 34.7L13.5 26.1C13.3 25.9 13.1 25.7 12.8 25.7H8.3C7.9 25.7 7.6 26 7.6 26.4V34.2C7.6 34.8 7.1 35.3 6.5 35.3H1.1C0.5 35.3 0 34.8 0 34.2V1.1C0 0.5 0.5 1.52588e-06 1.1 1.52588e-06H14.2C21.5 1.52588e-06 27.3 5.6 27.3 12.9C27.3 17.7 24.8 21.7 21.1 23.9C20.8 24 20.7 24.3 20.9 24.5ZM7.6 18.7C7.6 19.1 7.9 19.4 8.3 19.4H14.1C17.2 19.4 19.7 16.6 19.7 12.8C19.7 9 17.2 6.2 14.1 6.2H8.3C7.9 6.2 7.6 6.5 7.6 6.9V18.7Z" transform="translate(0 98.94)" fill="#181D62"/>
<path d="M36.4 18.1C36.4 28.4 28.3 36.2 18.2 36.2C8.1 36.2 1.52588e-06 28.4 1.52588e-06 18.1C1.52588e-06 7.9 8.1 1.52588e-06 18.2 1.52588e-06C28.3 1.52588e-06 36.4 7.9 36.4 18.1ZM7.6 18.1C7.6 24.1 12 29.9 18.2 29.9C24.5 29.9 28.8 24.1 28.8 18.1C28.8 12.1 24.5 6.3 18.2 6.3C12 6.3 7.6 12.1 7.6 18.1Z" transform="translate(102.4 98.44)" fill="#181D62"/>
<defs>
<linearGradient id="paint0_linear" x2="1" gradientUnits="userSpaceOnUse" gradientTransform="translate(-8.01785 28.7399) scale(64.6539) rotate(-30)">
<stop stop-color="#D9D200"/>
<stop offset="0.2" stop-color="#A7C79C"/>
<stop offset="0.7" stop-color="#00989A"/>
<stop offset="1" stop-color="#181D62"/>
</linearGradient>
</defs>
</svg>
